<?xml version="1.0" encoding="UTF-8"?>
<svg width="24px" height="24px" viewBox="0 0 24 24" version="1.1" xmlns="http://www.w3.org/2000/svg" xmlns:xlink="http://www.w3.org/1999/xlink">
    <title>Shape</title>
    <g id="Icon-Export" stroke="none" stroke-width="1" fill="none" fill-rule="evenodd">
        <g id="Artboard-Copy" transform="translate(-271.000000, -17.000000)" fill="#17181B" fill-rule="nonzero">
            <path d="M291.864385,31.3406721 C291.477516,31.6033487 290.975864,31.6365428 290.556833,31.427192 C290.073948,31.1583623 289.813692,30.5280031 289.813692,29.6689842 L289.813692,27.0363075 C289.813692,25.772499 289.305722,24.8733102 288.455971,24.6292005 C287.019859,24.215141 285.947478,25.9486288 285.533577,26.600618 L282.993729,30.6516029 L282.993729,25.7076091 C282.965508,24.5674005 282.589234,23.8845114 281.87745,23.6805716 C281.407107,23.5446118 280.701594,23.6002317 280.014894,24.6322905 L274.336295,33.6149092 C273.580734,32.1903839 273.188969,30.6058193 273.194864,28.998455 C273.194864,23.5847818 277.584792,19.1815373 282.993729,19.1815373 C288.402665,19.1815373 292.808205,23.5847818 292.808205,28.998455 L292.808205,29.026265 C292.808205,29.026265 292.808205,29.0448049 292.808205,29.0540749 C292.86151,30.1015836 292.516593,30.9358826 291.86752,31.3406721 L291.864385,31.3406721 Z M295,29.001545 L295,28.9490151 C294.956101,22.3518733 289.587928,17 282.993729,17 C276.39953,17 271,22.3827733 271,28.998455 C271,35.6141367 276.380716,41 282.993729,41 C286.026744,41 288.944364,39.8542122 291.146329,37.798764 C291.591112,37.3858057 291.616269,36.6971729 291.20277,36.2537659 C291.010714,36.0444294 290.74187,35.9192168 290.455816,35.9058762 C290.169761,35.8925356 289.890119,35.9921686 289.678861,36.182696 C287.76327,37.9733552 285.189636,38.9169729 282.55218,38.7956785 C279.914724,38.674384 277.441455,37.4986632 275.703423,35.5399768 L280.814476,27.4441869 L280.814476,31.1799923 C280.814476,32.97528 281.51999,33.5561993 282.112621,33.7261491 C282.705252,33.8960989 283.611445,33.778679 284.561536,32.2584009 L287.38359,27.7562766 C287.471388,27.6110467 287.556049,27.4874469 287.631304,27.379297 L287.631304,29.6689842 C287.631304,31.3468521 288.314868,32.6879104 289.512673,33.3491696 C290.622081,33.9393633 291.969866,33.8860467 293.027698,33.2101197 C294.344656,32.3665508 295.062712,30.8400927 294.987458,29.001545 L295,29.001545 Z" id="Shape"></path>
        </g>
    </g>
</svg>