<?xml version="1.0" encoding="UTF-8"?>
<svg width="24px" height="24px" viewBox="0 0 24 24" version="1.1" xmlns="http://www.w3.org/2000/svg" xmlns:xlink="http://www.w3.org/1999/xlink">
    <title>Path</title>
    <g id="Icon-Export" stroke="none" stroke-width="1" fill="none" fill-rule="evenodd">
        <g id="Artboard-Copy" transform="translate(-271.000000, -45.000000)" fill="#DE5959" fill-rule="nonzero">
            <path d="M280.40141,56.8093368 L280.191467,56.599393 C280.032938,56.4408641 279.76301,56.5522628 279.76301,56.7750603 L279.76301,59.7614032 C279.76301,59.8985093 279.874409,60.0099081 280.015799,60.0099081 L283.002142,60.0099081 C283.22494,60.0099081 283.336338,59.7399804 283.17781,59.5814514 C283.079264,59.4829064 283.079264,59.3243774 283.17781,59.2301169 L286.356958,56.0423994 C286.455503,55.9438543 286.455503,55.7853254 286.356958,55.6910649 L286.065607,55.4039989 C285.907078,55.24547 286.018477,54.9755423 286.241275,54.9755423 L289.227618,54.9755423 C289.364724,54.9755423 289.480407,55.086941 289.480407,55.2240471 L289.480407,58.2103901 C289.480407,58.4331875 289.210479,58.5445863 289.05195,58.3860573 L288.850576,58.1846827 C288.752031,58.0861376 288.593502,58.0861376 288.499241,58.1846827 L283.139248,63.540391 C283.040703,63.638936 282.882174,63.638936 282.783629,63.540391 L276.228242,56.985004 C276.129697,56.886459 276.129697,56.72793 276.228242,56.629385 L285.311524,47.563242 C285.410069,47.464697 285.410069,47.306168 285.311524,47.207623 L283.17781,45.0739088 C283.079264,44.9753637 282.920736,44.9753637 282.82219,45.0739088 L271.073909,56.8221905 C270.975364,56.9207355 270.975364,57.0792645 271.073909,57.1778095 L282.82219,68.9260912 C282.920736,69.0246363 283.079264,69.0246363 283.17781,68.9260912 L294.926091,57.1778095 C295.024636,57.0792645 295.024636,56.9207355 294.926091,56.8221905 L288.010801,49.9154691 C287.912256,49.816924 287.753727,49.816924 287.655182,49.9154691 L280.757029,56.8136214 C280.658484,56.9078818 280.499955,56.9078818 280.40141,56.8093368 L280.40141,56.8093368 Z" id="Path"></path>
        </g>
    </g>
</svg>