<?xml version="1.0" encoding="UTF-8"?>
<svg width="25px" height="24px" viewBox="0 0 25 24" version="1.1" xmlns="http://www.w3.org/2000/svg" xmlns:xlink="http://www.w3.org/1999/xlink">
    <title>Logo Copy</title>
    <g id="Icon-Export" stroke="none" stroke-width="1" fill="none" fill-rule="evenodd">
        <g id="Artboard-Copy" transform="translate(-72.000000, -31.000000)" fill="#00C386">
            <g id="Group" transform="translate(64.000000, 23.000000)">
                <path d="M26.3332563,19.195128 L28.8694734,20.9512105 L25.3912258,32 L16.4782132,32 L12.2753532,29.2926771 L23.1448585,29.2926771 L26.3332563,19.195128 Z M23.6521019,12.609744 L33,19.4146259 L30.246291,28.4877852 L26.5506498,31.2682824 L29.8839602,20.6585384 L21.2608221,14.5121999 C22.1380699,13.8264057 22.7748542,13.295563 23.6521019,12.609744 Z M9.37680532,14.9512205 L13.1449028,25.4877902 L23.3622521,25.4877902 L22.5651588,28.3414616 L10.9709919,28.3414616 L8,19.4146259 L9.37680532,14.9512205 Z M22.1303717,8 L13.3622963,14.6585235 L16.4782132,24.5365747 L13.6521462,24.5365747 L10.028986,13.707308 L17.7100936,8 L22.1303717,8 Z M23.6521019,8 L31.3332341,13.707308 L32.7825819,18.2438876 L23.6521019,11.5122048 C23.6521019,11.5122048 23.6011538,11.5519857 23.5061362,11.6259059 L23.371402,11.7306359 C22.5963665,12.3326095 20.333884,14.0823581 18.0697542,15.7612955 L17.6173465,16.0957778 C16.7895063,16.7059404 15.9747618,17.2956608 15.2463574,17.804867 L15.2463574,17.804867 L14.3043269,14.9512205 L23.6521019,8 Z" id="Logo-Copy"></path>
            </g>
        </g>
    </g>
</svg>