<?xml version="1.0" encoding="UTF-8"?>
<svg width="21px" height="24px" viewBox="0 0 21 24" version="1.1" xmlns="http://www.w3.org/2000/svg" xmlns:xlink="http://www.w3.org/1999/xlink">
    <title>Combined Shape</title>
    <g id="Icon-Export" stroke="none" stroke-width="1" fill="none" fill-rule="evenodd">
        <g id="Artboard-Copy" transform="translate(-304.000000, -33.000000)" fill="#FF007A" fill-rule="nonzero">
            <path d="M314.728775,51.6549982 C315.044153,51.6923702 315.353112,51.7713496 315.647291,51.889611 C315.955574,52.0111944 316.240124,52.1848494 316.488187,52.4026864 C316.733716,52.6311536 316.9322,52.9044671 317.072574,53.2075121 C317.199266,53.4911237 317.293778,53.7877739 317.354422,54.0920647 C317.534915,55.0016149 317.468444,56.4117832 318.674382,56.6198204 C318.737221,56.6318624 318.800651,56.6407487 318.86442,56.646396 L319.061552,56.6511298 C319.197113,56.6415792 319.331744,56.6224779 319.464601,56.5939922 C319.739692,56.5301277 320.007772,56.4396876 320.265041,56.3241667 C320.153467,56.4117832 320.04181,56.5048809 319.919087,56.5861856 C319.795605,56.6665768 319.666126,56.7376666 319.531833,56.7989566 C319.25235,56.9336617 318.944996,57.0024261 318.634009,56.9999346 C317.791508,56.9843215 317.196057,56.3648606 316.847654,55.6648425 L316.712447,55.3748056 L316.712447,55.3748056 L316.458238,54.7861651 C316.370975,54.5912343 316.277101,54.3997106 316.164363,54.2179666 C315.761313,53.5680269 315.071687,53.0448196 314.263984,53.1417375 C313.93467,53.1824314 313.625795,53.3286803 313.442937,53.6110461 C312.961507,54.3486023 313.652738,55.3817292 314.534007,55.2354803 C314.609009,55.2241856 314.682321,55.2042539 314.752593,55.1760173 C314.822527,55.1466181 314.8879,55.107336 314.946516,55.0594999 C315.06966,54.9582634 315.162483,54.8257176 315.214934,54.6763128 C315.272874,54.5204303 315.285712,54.3516752 315.252181,54.1889826 C315.216032,54.0189817 315.114425,53.8694939 314.968729,53.7721608 C315.138074,53.8504758 315.270087,53.9906621 315.336896,54.1632375 C315.406238,54.3407127 315.42406,54.5338842 315.388417,54.720827 C315.353788,54.9156594 315.266793,55.0977854 315.136554,55.2480206 C315.06738,55.325256 314.987395,55.3924425 314.899049,55.4474207 C314.811462,55.5018177 314.717626,55.5456675 314.619566,55.5780565 C314.42066,55.6451599 314.208916,55.6668356 314.000381,55.6414227 C313.707469,55.6002305 313.431281,55.481886 313.200617,55.2988465 L313.142,55.247 L313.044307,55.1675191 C312.896723,55.0380783 312.762434,54.8943333 312.643425,54.7384283 C312.590144,54.6803795 312.535879,54.6233344 312.479318,54.5683494 C312.197049,54.2757686 311.863934,54.0355084 311.495851,53.8589467 C311.242045,53.7488241 310.976415,53.6675193 310.704112,53.6165274 C310.567116,53.5883738 310.428515,53.5680269 310.289998,53.5508358 C310.226627,53.5445241 309.91624,53.4765071 309.872692,53.5163705 C310.300978,53.1269548 310.76788,52.7811397 311.266286,52.4839911 C311.778036,52.184019 312.327457,51.9518146 312.900526,51.7934405 C313.494711,51.6282565 314.116093,51.5811679 314.728775,51.6549982 Z M319.823139,46.9576762 C321.131191,47.8469625 323.205728,48.4515576 323.907263,50.110374 C324.709392,51.9999829 323.791636,54.3814897 321.858909,55.1698717 C323.742564,52.0633491 318.71467,50.013373 319.823139,46.9576762 Z M304,33 L307.352427,36.5530012 L309.744455,39.1652424 L310.937731,40.4744981 C311.333601,40.9148311 311.729471,41.3410872 312.125426,41.8040842 L312.190292,41.8823161 L312.204566,42.0034843 C312.223907,42.1679209 312.214266,42.3343506 312.176102,42.4954653 C312.132182,42.6621442 312.055492,42.8186911 311.950422,42.9561369 C311.75481,43.2068611 311.49602,43.4023579 311.199815,43.5231939 C310.933339,43.6365555 310.651239,43.7098045 310.362888,43.7406156 C310.300302,43.7484222 310.235377,43.7530729 310.172825,43.7578067 C309.990161,43.7646167 309.814507,43.8290626 309.671598,43.9416767 C309.52869,44.0542909 309.426027,44.2090938 309.378644,44.3834962 C309.356946,44.4702822 309.340814,44.5583139 309.330341,44.6470931 C309.301844,44.8769721 309.297089,45.1163187 309.27175,45.4056606 C309.209713,45.8981399 309.065496,46.3769991 308.844968,46.822888 C308.55834,47.4188461 308.236872,47.8990341 308.311299,48.5857645 C308.360388,49.0315703 308.591592,49.3302968 308.898812,49.6384908 C309.453072,50.1984887 310.693807,50.4487147 310.41669,51.8284041 C310.249626,52.6519158 308.867139,53.5162044 306.924065,53.8180867 C307.117262,53.7891027 306.676231,53.0547024 306.648511,53.0077798 C306.440271,52.6855505 306.212234,52.3820903 306.046749,52.032538 C305.722106,51.3544447 305.571663,50.5699659 305.70469,49.8269285 C305.844836,49.0448581 306.430769,48.4457442 306.917731,47.8482083 C307.497329,47.1373107 308.105425,46.2058356 308.240031,45.2829145 C308.271704,45.0592641 308.293875,44.7792237 308.344552,44.5007611 C308.392863,44.1923179 308.490695,43.8934254 308.634347,43.6154611 C308.732406,43.433086 308.861505,43.2688155 309.016002,43.1297918 C309.096544,43.0559615 309.149687,42.9575487 309.166917,42.8503327 C309.184139,42.7431167 309.164459,42.6333262 309.111012,42.5384845 L306.013489,37.0355561 L310.462637,42.4586747 C310.513314,42.5215426 310.577335,42.5726176 310.650225,42.6082455 C310.723115,42.6438734 310.803016,42.6633069 310.884352,42.6649678 C310.965688,42.6667119 311.046349,42.6507665 311.120675,42.6182114 C311.195085,42.5856562 311.261303,42.5373219 311.314598,42.4766962 C311.370933,42.4117521 311.402944,42.3296169 311.405056,42.2441597 C311.407252,42.1587025 311.379464,42.0750723 311.326507,42.0074706 C311.035875,41.6406442 310.72869,41.2667752 310.430964,40.8991847 L309.311346,39.530491 L307.064212,36.7977958 L304,33 Z M318.603012,46.3526658 C318.879032,46.6361944 319.079965,46.9825908 319.188075,47.3612102 C319.29627,47.7397466 319.308179,48.1387959 319.222958,48.5230626 C319.126081,48.9297525 318.916955,49.3020602 318.618806,49.5984613 C318.323699,49.885644 317.967864,50.1046436 317.576808,50.239764 C317.203658,50.3690709 316.814545,50.4479673 316.420027,50.4743768 C316.039951,50.5056862 315.672545,50.5143232 315.311473,50.5354176 C314.581474,50.5656474 313.860513,50.706249 313.17359,50.9522395 C313.475708,50.7273434 313.805951,50.5420615 314.156212,50.4008786 C314.510611,50.2607753 314.878271,50.1559678 315.253701,50.0880339 C315.998734,49.9480136 316.735912,49.9136314 317.355097,49.6673087 C317.661016,49.5492964 317.942525,49.3769702 318.185689,49.1588841 C318.421083,48.9428742 318.601238,48.6748758 318.71146,48.3768137 C318.824385,48.062308 318.870163,47.7281197 318.846092,47.3952602 C318.818135,47.0377352 318.736208,46.6862728 318.603012,46.3526658 Z M317.126376,42.7598926 C318.423363,44.127789 321.12967,43.4339995 323.206573,44.7018222 C325.537703,46.1237004 325.19724,48.8861519 324.405416,49.9028351 C324.475934,48.2503049 322.803952,47.5599101 321.041453,46.8532533 L320.599898,46.6756841 C318.686608,45.8998424 316.82865,45.0092273 317.126376,42.7598926 Z M313.467177,43.9842807 C313.658059,44.0798699 313.817776,44.2267832 313.927998,44.4079956 C314.440339,45.2987768 313.294623,45.574914 312.756942,45.6257399 C311.942229,45.7038888 311.77356,45.2401444 311.932685,44.6574742 C311.984882,44.4488556 312.100847,44.2611654 312.264702,44.1198994 C312.428557,43.9785504 312.632531,43.8904356 312.848836,43.8675142 C313.061932,43.8482468 313.276295,43.8886916 313.467177,43.9842807 Z M313.035158,37.5656233 C313.646404,37.7999869 314.205115,38.1504694 314.679787,38.597222 C314.989675,38.8842884 315.28056,39.1907301 315.550752,39.5146369 C317.561943,39.1235769 319.193058,39.470837 320.446463,40.1450187 L320.474927,40.1590955 C320.873922,40.3728215 321.247747,40.6293426 321.589815,40.9239997 C321.644462,40.9709222 321.698264,41.0178531 321.74818,41.0655563 C322.015162,41.3078677 322.263647,41.5692222 322.491693,41.8476848 L322.509092,41.8703571 C323.249394,42.796351 323.615196,43.7591355 323.616041,44.3426362 L323.611311,44.3355771 C323.538843,44.202616 323.45624,44.0753022 323.364262,43.9546323 C323.093563,43.5925396 322.70538,43.3330122 322.264407,43.2194845 C321.970904,43.1446576 321.670729,43.0980672 321.368105,43.0802948 C321.061679,43.0583699 320.748919,43.0458295 320.43295,43.0294689 C319.799575,42.9950037 319.151081,42.93089 318.517622,42.7525843 C318.359257,42.7079871 318.200892,42.6594866 318.048102,42.6008542 C317.968877,42.5727006 317.895227,42.5422217 317.816847,42.5093344 C317.738467,42.4764471 317.658482,42.4389091 317.579342,42.3990456 C317.281447,42.237931 317.005597,42.0400258 316.75821,41.8101467 C316.270446,41.3620155 315.887245,40.8536075 315.5032,40.3608791 C315.141199,39.8662572 314.752677,39.3910936 314.339324,38.9374396 C313.93146,38.4930124 313.449356,38.1210618 312.91404,37.8377907 C312.359806,37.5620356 311.757766,37.3922091 311.139594,37.3372474 C311.780824,37.2684664 312.429486,37.3466153 313.035158,37.5656233 Z M311.24137,37.9164213 C311.754472,37.9899444 312.277794,38.191728 312.615132,38.5765262 C312.95247,38.9613245 313.076713,39.4618761 313.174181,39.9381774 C313.253321,40.3073375 313.315907,40.6835319 313.463123,41.0331341 C313.534408,41.2036332 313.638887,41.3530463 313.726051,41.5141609 C313.798096,41.6478694 313.929518,41.7682902 313.980195,41.9114663 C313.989232,41.9319793 313.99261,41.9545686 313.989992,41.9768256 C313.987374,41.9990827 313.978759,42.0202602 313.965161,42.0381156 C313.786187,42.2336955 313.303238,42.0162738 313.121055,41.9286573 C312.806268,41.7745188 312.524252,41.56208 312.290463,41.3029595 C311.559704,40.501298 311.181993,39.347684 311.204967,38.2973079 C311.210035,38.1697865 311.222197,38.0426305 311.24137,37.9164213 Z" id="Combined-Shape"></path>
        </g>
    </g>
</svg>